<svg xmlns="http://www.w3.org/2000/svg" xmlns:xlink="http://www.w3.org/1999/xlink" width="500" zoomAndPan="magnify" viewBox="0 0 375 374.999991" height="500" preserveAspectRatio="xMidYMid meet" version="1.0"><defs><filter x="0%" y="0%" width="100%" height="100%" id="64b7bfb228"><feColorMatrix values="0 0 0 0 1 0 0 0 0 1 0 0 0 0 1 0 0 0 1 0" color-interpolation-filters="sRGB"/></filter><g/><clipPath id="54b79f36f1"><path d="M 154.257812 128 L 214 128 L 214 188.621094 L 154.257812 188.621094 Z M 154.257812 128 " clip-rule="nonzero"/></clipPath><clipPath id="e10325c706"><path d="M 198 115.121094 L 214 115.121094 L 214 131 L 198 131 Z M 198 115.121094 " clip-rule="nonzero"/></clipPath><clipPath id="2b62c24b69"><path d="M 0 1.066406 L 375 1.066406 L 375 303 L 0 303 Z M 0 1.066406 " clip-rule="nonzero"/></clipPath><clipPath id="1fb79335f9"><path d="M 0 0.0664062 L 375 0.0664062 L 375 302 L 0 302 Z M 0 0.0664062 " clip-rule="nonzero"/></clipPath><clipPath id="c9a1a32d94"><path d="M 0 3.613281 L 375 3.613281 L 375 301.660156 L 0 301.660156 Z M 0 3.613281 " clip-rule="nonzero"/></clipPath><linearGradient x1="-64.784654" gradientTransform="matrix(0.887089, 0, 0, 0.887054, 57.469729, 113.607341)" y1="44" x2="357.946514" gradientUnits="userSpaceOnUse" y2="44" id="58d712ac0a"><stop stop-opacity="1" stop-color="rgb(0%, 29.019165%, 67.83905%)" offset="0"/><stop stop-opacity="1" stop-color="rgb(0%, 29.019165%, 67.83905%)" offset="0.125"/><stop stop-opacity="1" stop-color="rgb(0.105286%, 29.03595%, 67.868042%)" offset="0.15625"/><stop stop-opacity="1" stop-color="rgb(0.662231%, 29.129028%, 68.025208%)" offset="0.160156"/><stop stop-opacity="1" stop-color="rgb(1.113892%, 29.205322%, 68.151855%)" offset="0.164062"/><stop stop-opacity="1" stop-color="rgb(1.564026%, 29.28009%, 68.278503%)" offset="0.167969"/><stop stop-opacity="1" stop-color="rgb(2.01416%, 29.356384%, 68.405151%)" offset="0.171875"/><stop stop-opacity="1" stop-color="rgb(2.464294%, 29.431152%, 68.531799%)" offset="0.175781"/><stop stop-opacity="1" stop-color="rgb(2.914429%, 29.507446%, 68.658447%)" offset="0.179688"/><stop stop-opacity="1" stop-color="rgb(3.364563%, 29.582214%, 68.783569%)" offset="0.183594"/><stop stop-opacity="1" stop-color="rgb(3.814697%, 29.658508%, 68.910217%)" offset="0.1875"/><stop stop-opacity="1" stop-color="rgb(4.264832%, 29.733276%, 69.036865%)" offset="0.191406"/><stop stop-opacity="1" stop-color="rgb(4.714966%, 29.80957%, 69.163513%)" offset="0.195313"/><stop stop-opacity="1" stop-color="rgb(5.1651%, 29.884338%, 69.290161%)" offset="0.199219"/><stop stop-opacity="1" stop-color="rgb(5.615234%, 29.959106%, 69.416809%)" offset="0.203125"/><stop stop-opacity="1" stop-color="rgb(6.065369%, 30.033875%, 69.543457%)" offset="0.207031"/><stop stop-opacity="1" stop-color="rgb(6.517029%, 30.110168%, 69.670105%)" offset="0.210938"/><stop stop-opacity="1" stop-color="rgb(6.967163%, 30.184937%, 69.795227%)" offset="0.214844"/><stop stop-opacity="1" stop-color="rgb(7.417297%, 30.26123%, 69.921875%)" offset="0.21875"/><stop stop-opacity="1" stop-color="rgb(7.867432%, 30.335999%, 70.048523%)" offset="0.222656"/><stop stop-opacity="1" stop-color="rgb(8.317566%, 30.412292%, 70.175171%)" offset="0.226562"/><stop stop-opacity="1" stop-color="rgb(8.7677%, 30.487061%, 70.301819%)" offset="0.230469"/><stop stop-opacity="1" stop-color="rgb(9.217834%, 30.563354%, 70.428467%)" offset="0.234375"/><stop stop-opacity="1" stop-color="rgb(9.667969%, 30.638123%, 70.555115%)" offset="0.238281"/><stop stop-opacity="1" stop-color="rgb(10.118103%, 30.712891%, 70.681763%)" offset="0.242188"/><stop stop-opacity="1" stop-color="rgb(10.568237%, 30.787659%, 70.806885%)" offset="0.246094"/><stop stop-opacity="1" stop-color="rgb(11.018372%, 30.863953%, 70.933533%)" offset="0.25"/><stop stop-opacity="1" stop-color="rgb(11.468506%, 30.938721%, 71.060181%)" offset="0.253906"/><stop stop-opacity="1" stop-color="rgb(11.91864%, 31.015015%, 71.186829%)" offset="0.257812"/><stop stop-opacity="1" stop-color="rgb(12.368774%, 31.089783%, 71.313477%)" offset="0.261719"/><stop stop-opacity="1" stop-color="rgb(12.820435%, 31.166077%, 71.440125%)" offset="0.265625"/><stop stop-opacity="1" stop-color="rgb(13.270569%, 31.240845%, 71.566772%)" offset="0.269531"/><stop stop-opacity="1" stop-color="rgb(13.720703%, 31.317139%, 71.69342%)" offset="0.273438"/><stop stop-opacity="1" stop-color="rgb(14.170837%, 31.391907%, 71.820068%)" offset="0.277344"/><stop stop-opacity="1" stop-color="rgb(14.620972%, 31.468201%, 71.946716%)" offset="0.28125"/><stop stop-opacity="1" stop-color="rgb(15.071106%, 31.542969%, 72.071838%)" offset="0.285156"/><stop stop-opacity="1" stop-color="rgb(15.52124%, 31.617737%, 72.198486%)" offset="0.289063"/><stop stop-opacity="1" stop-color="rgb(15.971375%, 31.692505%, 72.325134%)" offset="0.292969"/><stop stop-opacity="1" stop-color="rgb(16.421509%, 31.768799%, 72.451782%)" offset="0.296875"/><stop stop-opacity="1" stop-color="rgb(16.871643%, 31.843567%, 72.57843%)" offset="0.300781"/><stop stop-opacity="1" stop-color="rgb(17.321777%, 31.919861%, 72.705078%)" offset="0.304688"/><stop stop-opacity="1" stop-color="rgb(17.771912%, 31.994629%, 72.831726%)" offset="0.308594"/><stop stop-opacity="1" stop-color="rgb(18.223572%, 32.070923%, 72.958374%)" offset="0.3125"/><stop stop-opacity="1" stop-color="rgb(18.673706%, 32.145691%, 73.083496%)" offset="0.316406"/><stop stop-opacity="1" stop-color="rgb(19.12384%, 32.221985%, 73.210144%)" offset="0.320312"/><stop stop-opacity="1" stop-color="rgb(19.573975%, 32.296753%, 73.336792%)" offset="0.324219"/><stop stop-opacity="1" stop-color="rgb(20.024109%, 32.371521%, 73.46344%)" offset="0.328125"/><stop stop-opacity="1" stop-color="rgb(20.474243%, 32.446289%, 73.590088%)" offset="0.332031"/><stop stop-opacity="1" stop-color="rgb(20.924377%, 32.522583%, 73.716736%)" offset="0.335938"/><stop stop-opacity="1" stop-color="rgb(21.374512%, 32.597351%, 73.843384%)" offset="0.339844"/><stop stop-opacity="1" stop-color="rgb(21.824646%, 32.673645%, 73.970032%)" offset="0.34375"/><stop stop-opacity="1" stop-color="rgb(22.27478%, 32.748413%, 74.095154%)" offset="0.347656"/><stop stop-opacity="1" stop-color="rgb(22.724915%, 32.824707%, 74.221802%)" offset="0.351563"/><stop stop-opacity="1" stop-color="rgb(23.175049%, 32.899475%, 74.34845%)" offset="0.355469"/><stop stop-opacity="1" stop-color="rgb(23.625183%, 32.975769%, 74.475098%)" offset="0.359375"/><stop stop-opacity="1" stop-color="rgb(24.075317%, 33.050537%, 74.601746%)" offset="0.363281"/><stop stop-opacity="1" stop-color="rgb(24.526978%, 33.126831%, 74.728394%)" offset="0.367188"/><stop stop-opacity="1" stop-color="rgb(24.977112%, 33.201599%, 74.855042%)" offset="0.371094"/><stop stop-opacity="1" stop-color="rgb(25.427246%, 33.276367%, 74.981689%)" offset="0.375"/><stop stop-opacity="1" stop-color="rgb(25.87738%, 33.351135%, 75.106812%)" offset="0.378906"/><stop stop-opacity="1" stop-color="rgb(26.327515%, 33.427429%, 75.233459%)" offset="0.382813"/><stop stop-opacity="1" stop-color="rgb(26.777649%, 33.502197%, 75.360107%)" offset="0.386719"/><stop stop-opacity="1" stop-color="rgb(27.227783%, 33.578491%, 75.486755%)" offset="0.390625"/><stop stop-opacity="1" stop-color="rgb(27.677917%, 33.653259%, 75.613403%)" offset="0.394531"/><stop stop-opacity="1" stop-color="rgb(28.128052%, 33.729553%, 75.740051%)" offset="0.398438"/><stop stop-opacity="1" stop-color="rgb(28.578186%, 33.804321%, 75.866699%)" offset="0.402344"/><stop stop-opacity="1" stop-color="rgb(29.02832%, 33.880615%, 75.993347%)" offset="0.40625"/><stop stop-opacity="1" stop-color="rgb(29.478455%, 33.955383%, 76.118469%)" offset="0.410156"/><stop stop-opacity="1" stop-color="rgb(29.930115%, 34.030151%, 76.245117%)" offset="0.414062"/><stop stop-opacity="1" stop-color="rgb(30.380249%, 34.104919%, 76.371765%)" offset="0.417969"/><stop stop-opacity="1" stop-color="rgb(30.830383%, 34.181213%, 76.498413%)" offset="0.421875"/><stop stop-opacity="1" stop-color="rgb(31.280518%, 34.255981%, 76.625061%)" offset="0.425781"/><stop stop-opacity="1" stop-color="rgb(31.730652%, 34.332275%, 76.751709%)" offset="0.429688"/><stop stop-opacity="1" stop-color="rgb(32.180786%, 34.407043%, 76.878357%)" offset="0.433594"/><stop stop-opacity="1" stop-color="rgb(32.63092%, 34.483337%, 77.005005%)" offset="0.4375"/><stop stop-opacity="1" stop-color="rgb(33.081055%, 34.558105%, 77.130127%)" offset="0.441406"/><stop stop-opacity="1" stop-color="rgb(33.531189%, 34.634399%, 77.256775%)" offset="0.445313"/><stop stop-opacity="1" stop-color="rgb(33.981323%, 34.709167%, 77.383423%)" offset="0.449219"/><stop stop-opacity="1" stop-color="rgb(34.431458%, 34.783936%, 77.510071%)" offset="0.453125"/><stop stop-opacity="1" stop-color="rgb(34.881592%, 34.858704%, 77.636719%)" offset="0.457031"/><stop stop-opacity="1" stop-color="rgb(35.331726%, 34.934998%, 77.763367%)" offset="0.460938"/><stop stop-opacity="1" stop-color="rgb(35.78186%, 35.009766%, 77.890015%)" offset="0.464844"/><stop stop-opacity="1" stop-color="rgb(36.233521%, 35.08606%, 78.016663%)" offset="0.46875"/><stop stop-opacity="1" stop-color="rgb(36.683655%, 35.160828%, 78.141785%)" offset="0.472656"/><stop stop-opacity="1" stop-color="rgb(37.133789%, 35.237122%, 78.268433%)" offset="0.476562"/><stop stop-opacity="1" stop-color="rgb(37.583923%, 35.31189%, 78.395081%)" offset="0.480469"/><stop stop-opacity="1" stop-color="rgb(38.034058%, 35.388184%, 78.521729%)" offset="0.484375"/><stop stop-opacity="1" stop-color="rgb(38.484192%, 35.462952%, 78.648376%)" offset="0.488281"/><stop stop-opacity="1" stop-color="rgb(38.934326%, 35.539246%, 78.775024%)" offset="0.492188"/><stop stop-opacity="1" stop-color="rgb(39.38446%, 35.614014%, 78.901672%)" offset="0.496094"/><stop stop-opacity="1" stop-color="rgb(39.834595%, 35.688782%, 79.02832%)" offset="0.5"/><stop stop-opacity="1" stop-color="rgb(40.284729%, 35.76355%, 79.153442%)" offset="0.503906"/><stop stop-opacity="1" stop-color="rgb(40.734863%, 35.839844%, 79.28009%)" offset="0.507812"/><stop stop-opacity="1" stop-color="rgb(41.184998%, 35.914612%, 79.406738%)" offset="0.511719"/><stop stop-opacity="1" stop-color="rgb(41.636658%, 35.990906%, 79.533386%)" offset="0.515625"/><stop stop-opacity="1" stop-color="rgb(42.086792%, 36.065674%, 79.660034%)" offset="0.519531"/><stop stop-opacity="1" stop-color="rgb(42.536926%, 36.141968%, 79.786682%)" offset="0.523438"/><stop stop-opacity="1" stop-color="rgb(42.987061%, 36.216736%, 79.91333%)" offset="0.527344"/><stop stop-opacity="1" stop-color="rgb(43.437195%, 36.29303%, 80.039978%)" offset="0.53125"/><stop stop-opacity="1" stop-color="rgb(43.887329%, 36.367798%, 80.1651%)" offset="0.535156"/><stop stop-opacity="1" stop-color="rgb(44.337463%, 36.442566%, 80.291748%)" offset="0.539062"/><stop stop-opacity="1" stop-color="rgb(44.787598%, 36.517334%, 80.418396%)" offset="0.542969"/><stop stop-opacity="1" stop-color="rgb(45.237732%, 36.593628%, 80.545044%)" offset="0.546875"/><stop stop-opacity="1" stop-color="rgb(45.687866%, 36.668396%, 80.671692%)" offset="0.550781"/><stop stop-opacity="1" stop-color="rgb(46.138%, 36.74469%, 80.79834%)" offset="0.554688"/><stop stop-opacity="1" stop-color="rgb(46.588135%, 36.819458%, 80.924988%)" offset="0.558594"/><stop stop-opacity="1" stop-color="rgb(47.038269%, 36.895752%, 81.051636%)" offset="0.5625"/><stop stop-opacity="1" stop-color="rgb(47.488403%, 36.97052%, 81.176758%)" offset="0.566406"/><stop stop-opacity="1" stop-color="rgb(47.940063%, 37.046814%, 81.303406%)" offset="0.570312"/><stop stop-opacity="1" stop-color="rgb(48.390198%, 37.121582%, 81.430054%)" offset="0.574219"/><stop stop-opacity="1" stop-color="rgb(48.840332%, 37.197876%, 81.556702%)" offset="0.578125"/><stop stop-opacity="1" stop-color="rgb(49.290466%, 37.272644%, 81.68335%)" offset="0.582031"/><stop stop-opacity="1" stop-color="rgb(49.740601%, 37.347412%, 81.809998%)" offset="0.585938"/><stop stop-opacity="1" stop-color="rgb(50.190735%, 37.42218%, 81.936646%)" offset="0.589844"/><stop stop-opacity="1" stop-color="rgb(50.640869%, 37.498474%, 82.063293%)" offset="0.59375"/><stop stop-opacity="1" stop-color="rgb(51.091003%, 37.573242%, 82.189941%)" offset="0.597656"/><stop stop-opacity="1" stop-color="rgb(51.541138%, 37.649536%, 82.316589%)" offset="0.601562"/><stop stop-opacity="1" stop-color="rgb(51.991272%, 37.724304%, 82.441711%)" offset="0.605469"/><stop stop-opacity="1" stop-color="rgb(52.441406%, 37.800598%, 82.568359%)" offset="0.609375"/><stop stop-opacity="1" stop-color="rgb(52.891541%, 37.875366%, 82.695007%)" offset="0.613281"/><stop stop-opacity="1" stop-color="rgb(53.343201%, 37.95166%, 82.821655%)" offset="0.617188"/><stop stop-opacity="1" stop-color="rgb(53.793335%, 38.026428%, 82.948303%)" offset="0.621094"/><stop stop-opacity="1" stop-color="rgb(54.243469%, 38.101196%, 83.074951%)" offset="0.625"/><stop stop-opacity="1" stop-color="rgb(54.693604%, 38.175964%, 83.201599%)" offset="0.628906"/><stop stop-opacity="1" stop-color="rgb(55.143738%, 38.252258%, 83.328247%)" offset="0.632812"/><stop stop-opacity="1" stop-color="rgb(55.593872%, 38.327026%, 83.453369%)" offset="0.636719"/><stop stop-opacity="1" stop-color="rgb(56.044006%, 38.40332%, 83.580017%)" offset="0.640625"/><stop stop-opacity="1" stop-color="rgb(56.494141%, 38.478088%, 83.706665%)" offset="0.644531"/><stop stop-opacity="1" stop-color="rgb(56.944275%, 38.554382%, 83.833313%)" offset="0.648438"/><stop stop-opacity="1" stop-color="rgb(57.394409%, 38.62915%, 83.959961%)" offset="0.652344"/><stop stop-opacity="1" stop-color="rgb(57.844543%, 38.705444%, 84.086609%)" offset="0.65625"/><stop stop-opacity="1" stop-color="rgb(58.294678%, 38.780212%, 84.213257%)" offset="0.660156"/><stop stop-opacity="1" stop-color="rgb(58.744812%, 38.856506%, 84.339905%)" offset="0.664063"/><stop stop-opacity="1" stop-color="rgb(59.194946%, 38.931274%, 84.465027%)" offset="0.667969"/><stop stop-opacity="1" stop-color="rgb(59.646606%, 39.006042%, 84.591675%)" offset="0.671875"/><stop stop-opacity="1" stop-color="rgb(60.096741%, 39.080811%, 84.718323%)" offset="0.675781"/><stop stop-opacity="1" stop-color="rgb(60.546875%, 39.157104%, 84.844971%)" offset="0.679688"/><stop stop-opacity="1" stop-color="rgb(60.997009%, 39.231873%, 84.971619%)" offset="0.683594"/><stop stop-opacity="1" stop-color="rgb(61.447144%, 39.308167%, 85.098267%)" offset="0.6875"/><stop stop-opacity="1" stop-color="rgb(61.897278%, 39.382935%, 85.224915%)" offset="0.691406"/><stop stop-opacity="1" stop-color="rgb(62.347412%, 39.459229%, 85.351562%)" offset="0.695313"/><stop stop-opacity="1" stop-color="rgb(62.797546%, 39.533997%, 85.476685%)" offset="0.699219"/><stop stop-opacity="1" stop-color="rgb(63.247681%, 39.610291%, 85.603333%)" offset="0.703125"/><stop stop-opacity="1" stop-color="rgb(63.697815%, 39.685059%, 85.72998%)" offset="0.707031"/><stop stop-opacity="1" stop-color="rgb(64.147949%, 39.759827%, 85.856628%)" offset="0.710938"/><stop stop-opacity="1" stop-color="rgb(64.598083%, 39.834595%, 85.983276%)" offset="0.714844"/><stop stop-opacity="1" stop-color="rgb(65.048218%, 39.910889%, 86.109924%)" offset="0.71875"/><stop stop-opacity="1" stop-color="rgb(65.498352%, 39.985657%, 86.236572%)" offset="0.722656"/><stop stop-opacity="1" stop-color="rgb(65.950012%, 40.061951%, 86.36322%)" offset="0.726562"/><stop stop-opacity="1" stop-color="rgb(66.400146%, 40.136719%, 86.488342%)" offset="0.730469"/><stop stop-opacity="1" stop-color="rgb(66.850281%, 40.213013%, 86.61499%)" offset="0.734375"/><stop stop-opacity="1" stop-color="rgb(67.300415%, 40.287781%, 86.741638%)" offset="0.738281"/><stop stop-opacity="1" stop-color="rgb(67.750549%, 40.364075%, 86.868286%)" offset="0.742188"/><stop stop-opacity="1" stop-color="rgb(68.200684%, 40.438843%, 86.994934%)" offset="0.746094"/><stop stop-opacity="1" stop-color="rgb(68.650818%, 40.515137%, 87.121582%)" offset="0.75"/><stop stop-opacity="1" stop-color="rgb(69.100952%, 40.589905%, 87.24823%)" offset="0.753906"/><stop stop-opacity="1" stop-color="rgb(69.551086%, 40.664673%, 87.374878%)" offset="0.757812"/><stop stop-opacity="1" stop-color="rgb(70.001221%, 40.739441%, 87.5%)" offset="0.761719"/><stop stop-opacity="1" stop-color="rgb(70.451355%, 40.815735%, 87.626648%)" offset="0.765625"/><stop stop-opacity="1" stop-color="rgb(70.901489%, 40.890503%, 87.753296%)" offset="0.769531"/><stop stop-opacity="1" stop-color="rgb(71.353149%, 40.966797%, 87.879944%)" offset="0.773438"/><stop stop-opacity="1" stop-color="rgb(71.803284%, 41.041565%, 88.006592%)" offset="0.777344"/><stop stop-opacity="1" stop-color="rgb(72.253418%, 41.117859%, 88.13324%)" offset="0.78125"/><stop stop-opacity="1" stop-color="rgb(72.703552%, 41.192627%, 88.259888%)" offset="0.785156"/><stop stop-opacity="1" stop-color="rgb(73.153687%, 41.268921%, 88.386536%)" offset="0.789062"/><stop stop-opacity="1" stop-color="rgb(73.603821%, 41.343689%, 88.511658%)" offset="0.792969"/><stop stop-opacity="1" stop-color="rgb(74.053955%, 41.418457%, 88.638306%)" offset="0.796875"/><stop stop-opacity="1" stop-color="rgb(74.504089%, 41.493225%, 88.764954%)" offset="0.800781"/><stop stop-opacity="1" stop-color="rgb(74.954224%, 41.569519%, 88.891602%)" offset="0.804688"/><stop stop-opacity="1" stop-color="rgb(75.404358%, 41.644287%, 89.01825%)" offset="0.808594"/><stop stop-opacity="1" stop-color="rgb(75.854492%, 41.720581%, 89.144897%)" offset="0.8125"/><stop stop-opacity="1" stop-color="rgb(76.304626%, 41.795349%, 89.271545%)" offset="0.816406"/><stop stop-opacity="1" stop-color="rgb(76.754761%, 41.871643%, 89.398193%)" offset="0.820313"/><stop stop-opacity="1" stop-color="rgb(77.204895%, 41.946411%, 89.523315%)" offset="0.824219"/><stop stop-opacity="1" stop-color="rgb(77.656555%, 42.022705%, 89.649963%)" offset="0.828125"/><stop stop-opacity="1" stop-color="rgb(78.106689%, 42.097473%, 89.776611%)" offset="0.832031"/><stop stop-opacity="1" stop-color="rgb(78.556824%, 42.172241%, 89.903259%)" offset="0.835938"/><stop stop-opacity="1" stop-color="rgb(79.006958%, 42.247009%, 90.029907%)" offset="0.839844"/><stop stop-opacity="1" stop-color="rgb(79.457092%, 42.323303%, 90.156555%)" offset="0.84375"/><stop stop-opacity="1" stop-color="rgb(79.533386%, 42.33551%, 90.177917%)" offset="0.875"/><stop stop-opacity="1" stop-color="rgb(79.60968%, 42.349243%, 90.19928%)" offset="1"/></linearGradient><clipPath id="129ae35b2b"><rect x="0" width="375" y="0" height="302"/></clipPath><clipPath id="758a76a79a"><path d="M 0 0.0664062 L 375 0.0664062 L 375 302 L 0 302 Z M 0 0.0664062 " clip-rule="nonzero"/></clipPath><clipPath id="c865db80ad"><rect x="0" width="375" y="0" height="302"/></clipPath><clipPath id="b43f98f274"><rect x="0" width="375" y="0" height="302"/></clipPath><mask id="ede90d1680"><g filter="url(#64b7bfb228)"><g transform="matrix(1, 0, 0, 1, 0, 0)"><g clip-path="url(#b43f98f274)"><g clip-path="url(#758a76a79a)"><g transform="matrix(1, 0, 0, 1, 0, 0)"><g clip-path="url(#c865db80ad)"><g fill="#000000" fill-opacity="1"><g transform="translate(57.434976, 173.926752)"><g><path d="M 40.75 -19.875 C 40.75 -16.882812 40.285156 -14.148438 39.359375 -11.671875 C 38.429688 -9.191406 37.117188 -7.03125 35.421875 -5.1875 C 33.722656 -3.351562 31.707031 -1.9375 29.375 -0.9375 C 27.050781 0.0625 24.503906 0.5625 21.734375 0.5625 C 18.972656 0.5625 16.425781 0.0625 14.09375 -0.9375 C 11.769531 -1.9375 9.753906 -3.351562 8.046875 -5.1875 C 6.347656 -7.03125 5.035156 -9.191406 4.109375 -11.671875 C 3.179688 -14.148438 2.71875 -16.882812 2.71875 -19.875 C 2.71875 -22.863281 3.179688 -25.59375 4.109375 -28.0625 C 5.035156 -30.539062 6.347656 -32.695312 8.046875 -34.53125 C 9.753906 -36.375 11.769531 -37.796875 14.09375 -38.796875 C 16.425781 -39.796875 18.972656 -40.296875 21.734375 -40.296875 C 24.503906 -40.296875 27.050781 -39.796875 29.375 -38.796875 C 31.707031 -37.796875 33.722656 -36.375 35.421875 -34.53125 C 37.117188 -32.695312 38.429688 -30.539062 39.359375 -28.0625 C 40.285156 -25.59375 40.75 -22.863281 40.75 -19.875 Z M 37.125 -19.875 C 37.125 -23.238281 36.46875 -26.195312 35.15625 -28.75 C 33.851562 -31.300781 32.046875 -33.296875 29.734375 -34.734375 C 27.429688 -36.171875 24.765625 -36.890625 21.734375 -36.890625 C 18.742188 -36.890625 16.085938 -36.171875 13.765625 -34.734375 C 11.441406 -33.296875 9.625 -31.300781 8.3125 -28.75 C 7.007812 -26.195312 6.359375 -23.238281 6.359375 -19.875 C 6.359375 -16.5 7.007812 -13.535156 8.3125 -10.984375 C 9.625 -8.429688 11.441406 -6.4375 13.765625 -5 C 16.085938 -3.5625 18.742188 -2.84375 21.734375 -2.84375 C 24.765625 -2.84375 27.429688 -3.5625 29.734375 -5 C 32.046875 -6.4375 33.851562 -8.429688 35.15625 -10.984375 C 36.46875 -13.535156 37.125 -16.5 37.125 -19.875 Z M 37.125 -19.875 "/></g></g></g><g fill="#000000" fill-opacity="1"><g transform="translate(99.775389, 173.926752)"><g><path d="M 2.609375 -28.890625 L 15.84375 -28.890625 C 16.289062 -28.890625 16.664062 -28.726562 16.96875 -28.40625 C 17.269531 -28.082031 17.421875 -27.695312 17.421875 -27.25 C 17.421875 -26.832031 17.269531 -26.472656 16.96875 -26.171875 C 16.664062 -25.867188 16.289062 -25.71875 15.84375 -25.71875 L 2.609375 -25.71875 C 2.160156 -25.71875 1.773438 -25.878906 1.453125 -26.203125 C 1.128906 -26.523438 0.96875 -26.890625 0.96875 -27.296875 C 0.96875 -27.753906 1.128906 -28.132812 1.453125 -28.4375 C 1.773438 -28.738281 2.160156 -28.890625 2.609375 -28.890625 Z M 8.453125 -36.890625 C 8.953125 -36.890625 9.359375 -36.71875 9.671875 -36.375 C 9.992188 -36.039062 10.15625 -35.644531 10.15625 -35.1875 L 10.15625 -6.703125 C 10.15625 -5.640625 10.296875 -4.84375 10.578125 -4.3125 C 10.867188 -3.78125 11.238281 -3.429688 11.6875 -3.265625 C 12.144531 -3.097656 12.601562 -3.015625 13.0625 -3.015625 C 13.363281 -3.015625 13.632812 -3.0625 13.875 -3.15625 C 14.125 -3.25 14.398438 -3.296875 14.703125 -3.296875 C 15.046875 -3.296875 15.335938 -3.160156 15.578125 -2.890625 C 15.828125 -2.628906 15.953125 -2.289062 15.953125 -1.875 C 15.953125 -1.34375 15.648438 -0.894531 15.046875 -0.53125 C 14.441406 -0.175781 13.722656 0 12.890625 0 C 12.546875 0 12.03125 -0.0234375 11.34375 -0.078125 C 10.664062 -0.140625 9.96875 -0.347656 9.25 -0.703125 C 8.53125 -1.066406 7.929688 -1.703125 7.453125 -2.609375 C 6.984375 -3.515625 6.75 -4.820312 6.75 -6.53125 L 6.75 -35.1875 C 6.75 -35.644531 6.910156 -36.039062 7.234375 -36.375 C 7.554688 -36.71875 7.960938 -36.890625 8.453125 -36.890625 Z M 8.453125 -36.890625 "/></g></g></g><g fill="#000000" fill-opacity="1"><g transform="translate(117.880595, 173.926752)"><g><path d="M 2.609375 -28.890625 L 15.84375 -28.890625 C 16.289062 -28.890625 16.664062 -28.726562 16.96875 -28.40625 C 17.269531 -28.082031 17.421875 -27.695312 17.421875 -27.25 C 17.421875 -26.832031 17.269531 -26.472656 16.96875 -26.171875 C 16.664062 -25.867188 16.289062 -25.71875 15.84375 -25.71875 L 2.609375 -25.71875 C 2.160156 -25.71875 1.773438 -25.878906 1.453125 -26.203125 C 1.128906 -26.523438 0.96875 -26.890625 0.96875 -27.296875 C 0.96875 -27.753906 1.128906 -28.132812 1.453125 -28.4375 C 1.773438 -28.738281 2.160156 -28.890625 2.609375 -28.890625 Z M 8.453125 -36.890625 C 8.953125 -36.890625 9.359375 -36.71875 9.671875 -36.375 C 9.992188 -36.039062 10.15625 -35.644531 10.15625 -35.1875 L 10.15625 -6.703125 C 10.15625 -5.640625 10.296875 -4.84375 10.578125 -4.3125 C 10.867188 -3.78125 11.238281 -3.429688 11.6875 -3.265625 C 12.144531 -3.097656 12.601562 -3.015625 13.0625 -3.015625 C 13.363281 -3.015625 13.632812 -3.0625 13.875 -3.15625 C 14.125 -3.25 14.398438 -3.296875 14.703125 -3.296875 C 15.046875 -3.296875 15.335938 -3.160156 15.578125 -2.890625 C 15.828125 -2.628906 15.953125 -2.289062 15.953125 -1.875 C 15.953125 -1.34375 15.648438 -0.894531 15.046875 -0.53125 C 14.441406 -0.175781 13.722656 0 12.890625 0 C 12.546875 0 12.03125 -0.0234375 11.34375 -0.078125 C 10.664062 -0.140625 9.96875 -0.347656 9.25 -0.703125 C 8.53125 -1.066406 7.929688 -1.703125 7.453125 -2.609375 C 6.984375 -3.515625 6.75 -4.820312 6.75 -6.53125 L 6.75 -35.1875 C 6.75 -35.644531 6.910156 -36.039062 7.234375 -36.375 C 7.554688 -36.71875 7.960938 -36.890625 8.453125 -36.890625 Z M 8.453125 -36.890625 "/></g></g></g><g fill="#000000" fill-opacity="1"><g transform="translate(135.701995, 173.926752)"><g><path d="M 31.5 -14.53125 C 31.5 -11.65625 30.875 -9.070312 29.625 -6.78125 C 28.382812 -4.488281 26.679688 -2.691406 24.515625 -1.390625 C 22.359375 -0.0859375 19.898438 0.5625 17.140625 0.5625 C 14.453125 0.5625 12.019531 -0.0859375 9.84375 -1.390625 C 7.664062 -2.691406 5.941406 -4.488281 4.671875 -6.78125 C 3.410156 -9.070312 2.78125 -11.65625 2.78125 -14.53125 C 2.78125 -17.445312 3.410156 -20.039062 4.671875 -22.3125 C 5.941406 -24.582031 7.664062 -26.378906 9.84375 -27.703125 C 12.019531 -29.023438 14.453125 -29.6875 17.140625 -29.6875 C 19.898438 -29.6875 22.359375 -29.023438 24.515625 -27.703125 C 26.679688 -26.378906 28.382812 -24.582031 29.625 -22.3125 C 30.875 -20.039062 31.5 -17.445312 31.5 -14.53125 Z M 28.09375 -14.53125 C 28.09375 -16.84375 27.617188 -18.894531 26.671875 -20.6875 C 25.734375 -22.488281 24.441406 -23.910156 22.796875 -24.953125 C 21.148438 -25.992188 19.265625 -26.515625 17.140625 -26.515625 C 15.097656 -26.515625 13.242188 -25.992188 11.578125 -24.953125 C 9.910156 -23.910156 8.59375 -22.488281 7.625 -20.6875 C 6.664062 -18.894531 6.1875 -16.84375 6.1875 -14.53125 C 6.1875 -12.21875 6.664062 -10.171875 7.625 -8.390625 C 8.59375 -6.617188 9.910156 -5.210938 11.578125 -4.171875 C 13.242188 -3.128906 15.097656 -2.609375 17.140625 -2.609375 C 19.265625 -2.609375 21.148438 -3.128906 22.796875 -4.171875 C 24.441406 -5.210938 25.734375 -6.617188 26.671875 -8.390625 C 27.617188 -10.171875 28.09375 -12.21875 28.09375 -14.53125 Z M 28.09375 -14.53125 "/></g></g></g><g fill="#000000" fill-opacity="1"><g transform="translate(168.847793, 173.926752)"><g><path d="M 34.40625 -39.734375 C 34.894531 -39.734375 35.28125 -39.582031 35.5625 -39.28125 C 35.84375 -38.976562 35.984375 -38.597656 35.984375 -38.140625 L 35.984375 -1.8125 C 35.984375 -1.25 35.800781 -0.804688 35.4375 -0.484375 C 35.082031 -0.160156 34.679688 0 34.234375 0 C 34.003906 0 33.753906 -0.046875 33.484375 -0.140625 C 33.222656 -0.234375 33.019531 -0.375 32.875 -0.5625 L 7.546875 -34.6875 L 8.515625 -35.1875 L 8.515625 -1.53125 C 8.515625 -1.113281 8.363281 -0.753906 8.0625 -0.453125 C 7.757812 -0.148438 7.378906 0 6.921875 0 C 6.429688 0 6.046875 -0.148438 5.765625 -0.453125 C 5.484375 -0.753906 5.34375 -1.113281 5.34375 -1.53125 L 5.34375 -38.03125 C 5.34375 -38.601562 5.507812 -39.03125 5.84375 -39.3125 C 6.1875 -39.59375 6.566406 -39.734375 6.984375 -39.734375 C 7.210938 -39.734375 7.457031 -39.6875 7.71875 -39.59375 C 7.988281 -39.5 8.195312 -39.335938 8.34375 -39.109375 L 33.375 -5.390625 L 32.8125 -4.375 L 32.8125 -38.140625 C 32.8125 -38.597656 32.972656 -38.976562 33.296875 -39.28125 C 33.617188 -39.582031 33.988281 -39.734375 34.40625 -39.734375 Z M 34.40625 -39.734375 "/></g></g></g><g fill="#000000" fill-opacity="1"><g transform="translate(209.031452, 173.926752)"><g><path d="M 31.5 -14.53125 C 31.5 -11.65625 30.875 -9.070312 29.625 -6.78125 C 28.382812 -4.488281 26.679688 -2.691406 24.515625 -1.390625 C 22.359375 -0.0859375 19.898438 0.5625 17.140625 0.5625 C 14.453125 0.5625 12.019531 -0.0859375 9.84375 -1.390625 C 7.664062 -2.691406 5.941406 -4.488281 4.671875 -6.78125 C 3.410156 -9.070312 2.78125 -11.65625 2.78125 -14.53125 C 2.78125 -17.445312 3.410156 -20.039062 4.671875 -22.3125 C 5.941406 -24.582031 7.664062 -26.378906 9.84375 -27.703125 C 12.019531 -29.023438 14.453125 -29.6875 17.140625 -29.6875 C 19.898438 -29.6875 22.359375 -29.023438 24.515625 -27.703125 C 26.679688 -26.378906 28.382812 -24.582031 29.625 -22.3125 C 30.875 -20.039062 31.5 -17.445312 31.5 -14.53125 Z M 28.09375 -14.53125 C 28.09375 -16.84375 27.617188 -18.894531 26.671875 -20.6875 C 25.734375 -22.488281 24.441406 -23.910156 22.796875 -24.953125 C 21.148438 -25.992188 19.265625 -26.515625 17.140625 -26.515625 C 15.097656 -26.515625 13.242188 -25.992188 11.578125 -24.953125 C 9.910156 -23.910156 8.59375 -22.488281 7.625 -20.6875 C 6.664062 -18.894531 6.1875 -16.84375 6.1875 -14.53125 C 6.1875 -12.21875 6.664062 -10.171875 7.625 -8.390625 C 8.59375 -6.617188 9.910156 -5.210938 11.578125 -4.171875 C 13.242188 -3.128906 15.097656 -2.609375 17.140625 -2.609375 C 19.265625 -2.609375 21.148438 -3.128906 22.796875 -4.171875 C 24.441406 -5.210938 25.734375 -6.617188 26.671875 -8.390625 C 27.617188 -10.171875 28.09375 -12.21875 28.09375 -14.53125 Z M 28.09375 -14.53125 "/></g></g></g><g fill="#000000" fill-opacity="1"><g transform="translate(242.17725, 173.926752)"><g><path d="M 2.609375 -28.890625 L 15.84375 -28.890625 C 16.289062 -28.890625 16.664062 -28.726562 16.96875 -28.40625 C 17.269531 -28.082031 17.421875 -27.695312 17.421875 -27.25 C 17.421875 -26.832031 17.269531 -26.472656 16.96875 -26.171875 C 16.664062 -25.867188 16.289062 -25.71875 15.84375 -25.71875 L 2.609375 -25.71875 C 2.160156 -25.71875 1.773438 -25.878906 1.453125 -26.203125 C 1.128906 -26.523438 0.96875 -26.890625 0.96875 -27.296875 C 0.96875 -27.753906 1.128906 -28.132812 1.453125 -28.4375 C 1.773438 -28.738281 2.160156 -28.890625 2.609375 -28.890625 Z M 8.453125 -36.890625 C 8.953125 -36.890625 9.359375 -36.71875 9.671875 -36.375 C 9.992188 -36.039062 10.15625 -35.644531 10.15625 -35.1875 L 10.15625 -6.703125 C 10.15625 -5.640625 10.296875 -4.84375 10.578125 -4.3125 C 10.867188 -3.78125 11.238281 -3.429688 11.6875 -3.265625 C 12.144531 -3.097656 12.601562 -3.015625 13.0625 -3.015625 C 13.363281 -3.015625 13.632812 -3.0625 13.875 -3.15625 C 14.125 -3.25 14.398438 -3.296875 14.703125 -3.296875 C 15.046875 -3.296875 15.335938 -3.160156 15.578125 -2.890625 C 15.828125 -2.628906 15.953125 -2.289062 15.953125 -1.875 C 15.953125 -1.34375 15.648438 -0.894531 15.046875 -0.53125 C 14.441406 -0.175781 13.722656 0 12.890625 0 C 12.546875 0 12.03125 -0.0234375 11.34375 -0.078125 C 10.664062 -0.140625 9.96875 -0.347656 9.25 -0.703125 C 8.53125 -1.066406 7.929688 -1.703125 7.453125 -2.609375 C 6.984375 -3.515625 6.75 -4.820312 6.75 -6.53125 L 6.75 -35.1875 C 6.75 -35.644531 6.910156 -36.039062 7.234375 -36.375 C 7.554688 -36.71875 7.960938 -36.890625 8.453125 -36.890625 Z M 8.453125 -36.890625 "/></g></g></g><g fill="#000000" fill-opacity="1"><g transform="translate(259.99865, 173.926752)"><g><path d="M 17.59375 0.5625 C 14.675781 0.5625 12.101562 -0.0546875 9.875 -1.296875 C 7.644531 -2.546875 5.90625 -4.285156 4.65625 -6.515625 C 3.40625 -8.753906 2.78125 -11.367188 2.78125 -14.359375 C 2.78125 -17.578125 3.410156 -20.320312 4.671875 -22.59375 C 5.941406 -24.863281 7.585938 -26.613281 9.609375 -27.84375 C 11.640625 -29.070312 13.789062 -29.6875 16.0625 -29.6875 C 17.726562 -29.6875 19.347656 -29.390625 20.921875 -28.796875 C 22.492188 -28.210938 23.894531 -27.34375 25.125 -26.1875 C 26.351562 -25.039062 27.332031 -23.632812 28.0625 -21.96875 C 28.800781 -20.300781 29.210938 -18.367188 29.296875 -16.171875 C 29.253906 -15.722656 29.0625 -15.335938 28.71875 -15.015625 C 28.382812 -14.691406 27.988281 -14.53125 27.53125 -14.53125 L 4.765625 -14.53125 L 4.09375 -17.59375 L 26.453125 -17.59375 L 25.71875 -16.921875 L 25.71875 -18.046875 C 25.5625 -19.828125 24.988281 -21.34375 24 -22.59375 C 23.019531 -23.84375 21.828125 -24.785156 20.421875 -25.421875 C 19.023438 -26.066406 17.570312 -26.390625 16.0625 -26.390625 C 14.925781 -26.390625 13.757812 -26.160156 12.5625 -25.703125 C 11.375 -25.253906 10.296875 -24.546875 9.328125 -23.578125 C 8.367188 -22.617188 7.585938 -21.390625 6.984375 -19.890625 C 6.378906 -18.398438 6.078125 -16.632812 6.078125 -14.59375 C 6.078125 -12.351562 6.53125 -10.328125 7.4375 -8.515625 C 8.34375 -6.703125 9.65625 -5.265625 11.375 -4.203125 C 13.101562 -3.140625 15.160156 -2.609375 17.546875 -2.609375 C 18.867188 -2.609375 20.054688 -2.796875 21.109375 -3.171875 C 22.171875 -3.554688 23.097656 -4.0625 23.890625 -4.6875 C 24.691406 -5.3125 25.359375 -5.960938 25.890625 -6.640625 C 26.304688 -6.984375 26.722656 -7.15625 27.140625 -7.15625 C 27.515625 -7.15625 27.84375 -7.003906 28.125 -6.703125 C 28.40625 -6.398438 28.546875 -6.054688 28.546875 -5.671875 C 28.546875 -5.222656 28.359375 -4.828125 27.984375 -4.484375 C 26.847656 -3.117188 25.367188 -1.9375 23.546875 -0.9375 C 21.734375 0.0625 19.75 0.5625 17.59375 0.5625 Z M 17.59375 0.5625 "/></g></g></g><g fill="#000000" fill-opacity="1"><g transform="translate(290.930928, 173.926752)"><g><path d="M 2.84375 -4.59375 C 2.539062 -5.050781 2.394531 -5.492188 2.40625 -5.921875 C 2.425781 -6.359375 2.664062 -6.710938 3.125 -6.984375 C 3.425781 -7.242188 3.773438 -7.351562 4.171875 -7.3125 C 4.566406 -7.28125 4.9375 -7.09375 5.28125 -6.75 C 6.300781 -5.425781 7.539062 -4.359375 9 -3.546875 C 10.457031 -2.734375 12.1875 -2.328125 14.1875 -2.328125 C 15.25 -2.328125 16.300781 -2.503906 17.34375 -2.859375 C 18.382812 -3.222656 19.242188 -3.773438 19.921875 -4.515625 C 20.609375 -5.253906 20.953125 -6.191406 20.953125 -7.328125 C 20.953125 -8.492188 20.609375 -9.4375 19.921875 -10.15625 C 19.242188 -10.875 18.363281 -11.441406 17.28125 -11.859375 C 16.207031 -12.273438 15.0625 -12.632812 13.84375 -12.9375 C 12.5625 -13.28125 11.3125 -13.671875 10.09375 -14.109375 C 8.882812 -14.546875 7.816406 -15.09375 6.890625 -15.75 C 5.960938 -16.414062 5.210938 -17.21875 4.640625 -18.15625 C 4.078125 -19.101562 3.796875 -20.257812 3.796875 -21.625 C 3.796875 -23.21875 4.234375 -24.617188 5.109375 -25.828125 C 5.984375 -27.035156 7.164062 -27.976562 8.65625 -28.65625 C 10.15625 -29.34375 11.847656 -29.6875 13.734375 -29.6875 C 14.679688 -29.6875 15.703125 -29.5625 16.796875 -29.3125 C 17.898438 -29.070312 18.976562 -28.664062 20.03125 -28.09375 C 21.09375 -27.53125 22.039062 -26.753906 22.875 -25.765625 C 23.21875 -25.429688 23.390625 -25.046875 23.390625 -24.609375 C 23.390625 -24.171875 23.195312 -23.78125 22.8125 -23.4375 C 22.507812 -23.21875 22.160156 -23.109375 21.765625 -23.109375 C 21.367188 -23.109375 21.039062 -23.257812 20.78125 -23.5625 C 19.863281 -24.582031 18.78125 -25.359375 17.53125 -25.890625 C 16.289062 -26.421875 14.953125 -26.6875 13.515625 -26.6875 C 12.410156 -26.6875 11.375 -26.503906 10.40625 -26.140625 C 9.445312 -25.773438 8.644531 -25.234375 8 -24.515625 C 7.351562 -23.796875 7.03125 -22.851562 7.03125 -21.6875 C 7.113281 -20.582031 7.503906 -19.691406 8.203125 -19.015625 C 8.898438 -18.335938 9.828125 -17.769531 10.984375 -17.3125 C 12.140625 -16.851562 13.4375 -16.4375 14.875 -16.0625 C 16.082031 -15.757812 17.242188 -15.398438 18.359375 -14.984375 C 19.472656 -14.566406 20.457031 -14.046875 21.3125 -13.421875 C 22.164062 -12.796875 22.847656 -12.007812 23.359375 -11.0625 C 23.867188 -10.125 24.125 -8.9375 24.125 -7.5 C 24.125 -5.832031 23.660156 -4.390625 22.734375 -3.171875 C 21.804688 -1.960938 20.566406 -1.035156 19.015625 -0.390625 C 17.460938 0.242188 15.738281 0.5625 13.84375 0.5625 C 11.800781 0.5625 9.820312 0.164062 7.90625 -0.625 C 6 -1.414062 4.3125 -2.738281 2.84375 -4.59375 Z M 2.84375 -4.59375 "/></g></g></g></g></g></g></g></g></g></mask><clipPath id="a56dc646b9"><path d="M 0 3.613281 L 375 3.613281 L 375 301.660156 L 0 301.660156 Z M 0 3.613281 " clip-rule="nonzero"/></clipPath><clipPath id="c88a861dab"><rect x="0" width="375" y="0" height="302"/></clipPath><clipPath id="045c23e90b"><rect x="0" width="375" y="0" height="302"/></clipPath><clipPath id="af3b07541c"><rect x="0" width="375" y="0" height="303"/></clipPath></defs><g clip-path="url(#54b79f36f1)"><path fill="#5756c2" d="M 204.527344 188.375 L 163.4375 188.375 C 158.378906 188.375 154.261719 184.257812 154.261719 179.199219 L 154.261719 138.105469 C 154.261719 133.042969 158.378906 128.925781 163.4375 128.925781 L 185.347656 128.925781 C 186.097656 128.925781 186.710938 129.535156 186.710938 130.289062 C 186.710938 131.039062 186.097656 131.648438 185.347656 131.648438 L 163.4375 131.648438 C 159.878906 131.648438 156.984375 134.546875 156.984375 138.105469 L 156.984375 179.195312 C 156.984375 182.753906 159.878906 185.648438 163.4375 185.648438 L 204.527344 185.648438 C 208.085938 185.648438 210.984375 182.753906 210.984375 179.195312 L 210.984375 152.921875 C 210.984375 152.171875 211.59375 151.558594 212.34375 151.558594 C 213.097656 151.558594 213.707031 152.171875 213.707031 152.921875 L 213.707031 179.195312 C 213.710938 184.257812 209.589844 188.375 204.527344 188.375 Z M 204.527344 188.375 " fill-opacity="1" fill-rule="nonzero"/></g><g clip-path="url(#e10325c706)"><path fill="#5756c2" d="M 213.238281 123.257812 C 209.945312 124.242188 207.351562 126.835938 206.371094 130.125 C 206.246094 130.542969 205.640625 130.542969 205.519531 130.125 C 204.535156 126.835938 201.941406 124.238281 198.652344 123.257812 C 198.234375 123.136719 198.234375 122.53125 198.652344 122.40625 C 201.941406 121.421875 204.539062 118.832031 205.519531 115.539062 C 205.640625 115.121094 206.246094 115.121094 206.371094 115.539062 C 207.355469 118.832031 209.945312 121.425781 213.238281 122.40625 C 213.652344 122.535156 213.652344 123.136719 213.238281 123.257812 Z M 213.238281 123.257812 " fill-opacity="1" fill-rule="nonzero"/></g><path fill="#5756c2" d="M 198.898438 137.824219 C 197.226562 138.464844 195.902344 139.789062 195.265625 141.457031 C 195.117188 141.839844 194.578125 141.839844 194.433594 141.457031 C 193.792969 139.785156 192.464844 138.460938 190.800781 137.824219 C 190.417969 137.675781 190.417969 137.136719 190.800781 136.992188 C 192.46875 136.351562 193.796875 135.023438 194.433594 133.359375 C 194.578125 132.976562 195.117188 132.976562 195.265625 133.359375 C 195.90625 135.027344 197.230469 136.355469 198.898438 136.992188 C 199.285156 137.140625 199.285156 137.675781 198.898438 137.824219 Z M 198.898438 137.824219 " fill-opacity="1" fill-rule="nonzero"/><path fill="#5756c2" d="M 220.3125 142.621094 C 217.957031 143.425781 216.089844 145.285156 215.289062 147.644531 C 215.148438 148.0625 214.578125 148.0625 214.4375 147.644531 C 213.632812 145.285156 211.769531 143.417969 209.410156 142.621094 C 208.992188 142.480469 208.992188 141.910156 209.410156 141.769531 C 211.769531 140.964844 213.636719 139.101562 214.4375 136.742188 C 214.578125 136.324219 215.148438 136.324219 215.289062 136.742188 C 216.09375 139.101562 217.957031 140.96875 220.3125 141.769531 C 220.730469 141.910156 220.730469 142.480469 220.3125 142.621094 Z M 220.3125 142.621094 " fill-opacity="1" fill-rule="nonzero"/><path fill="#5756c2" d="M 192.4375 174.953125 L 175.527344 174.953125 C 173.425781 174.953125 171.710938 173.242188 171.710938 171.136719 L 171.710938 147.316406 C 171.710938 145.210938 173.425781 143.5 175.527344 143.5 L 187.664062 143.5 C 188.773438 143.5 189.820312 143.992188 190.527344 144.851562 L 195.410156 150.78125 C 195.953125 151.445312 196.253906 152.28125 196.253906 153.140625 L 196.253906 171.140625 C 196.257812 173.242188 194.542969 174.953125 192.4375 174.953125 Z M 175.527344 146.226562 C 174.925781 146.226562 174.441406 146.714844 174.441406 147.316406 L 174.441406 171.136719 C 174.441406 171.738281 174.925781 172.226562 175.527344 172.226562 L 192.4375 172.226562 C 193.039062 172.226562 193.527344 171.738281 193.527344 171.136719 L 193.527344 153.136719 C 193.527344 152.910156 193.449219 152.6875 193.304688 152.511719 L 188.421875 146.582031 C 188.234375 146.355469 187.957031 146.226562 187.664062 146.226562 Z M 175.527344 146.226562 " fill-opacity="1" fill-rule="nonzero"/><path fill="#5756c2" d="M 194.890625 153.503906 L 189.921875 153.503906 C 188.539062 153.503906 187.410156 152.375 187.410156 150.988281 L 187.410156 144.863281 C 187.410156 144.113281 188.019531 143.503906 188.769531 143.503906 C 189.523438 143.503906 190.132812 144.113281 190.132812 144.863281 L 190.132812 150.773438 L 194.890625 150.773438 C 195.640625 150.773438 196.253906 151.382812 196.253906 152.136719 C 196.257812 152.890625 195.644531 153.503906 194.890625 153.503906 Z M 194.890625 153.503906 " fill-opacity="1" fill-rule="nonzero"/><path fill="#5756c2" d="M 188.769531 159.140625 L 178.53125 159.140625 C 177.777344 159.140625 177.167969 158.527344 177.167969 157.777344 C 177.167969 157.027344 177.777344 156.414062 178.53125 156.414062 L 188.773438 156.414062 C 189.527344 156.414062 190.136719 157.027344 190.136719 157.777344 C 190.136719 158.527344 189.527344 159.140625 188.769531 159.140625 Z M 188.769531 159.140625 " fill-opacity="1" fill-rule="nonzero"/><path fill="#5756c2" d="M 184.890625 164.410156 L 178.53125 164.410156 C 177.777344 164.410156 177.167969 163.800781 177.167969 163.046875 C 177.167969 162.296875 177.777344 161.6875 178.53125 161.6875 L 184.890625 161.6875 C 185.640625 161.6875 186.253906 162.296875 186.253906 163.046875 C 186.253906 163.800781 185.640625 164.410156 184.890625 164.410156 Z M 184.890625 164.410156 " fill-opacity="1" fill-rule="nonzero"/><g transform="matrix(1, 0, 0, 1, 0, 72)"><g clip-path="url(#af3b07541c)"><g clip-path="url(#2b62c24b69)"><g transform="matrix(1, 0, 0, 1, 0, 1)"><g clip-path="url(#045c23e90b)"><g clip-path="url(#1fb79335f9)"><g mask="url(#ede90d1680)"><g transform="matrix(1, 0, 0, 1, 0, 0)"><g clip-path="url(#c88a861dab)"><g clip-path="url(#a56dc646b9)"><path fill="url(#58d712ac0a)" d="M 0 3.613281 L 0 301.660156 L 375 301.660156 L 375 3.613281 Z M 0 3.613281 " fill-rule="nonzero"/></g></g></g></g></g></g></g></g></g></g></svg>